# Blender v2.90.0 OBJ File: 'HTWTopView.blend'
# www.blender.org
mtllib HTWTopView_Paths.mtl
o Plane.001_Plane.034
v -6.666523 0.000000 4.339579
v 0.096327 0.000000 4.339579
v -6.666523 0.000000 4.129815
v 0.096327 0.000000 4.129815
v -5.633306 0.000000 4.129815
v -5.797762 0.000000 4.129815
v -5.797763 0.000000 4.339579
v -5.633306 0.000000 4.339579
v -2.666655 0.000000 4.339579
v -2.495174 0.000000 4.339579
v -2.495174 0.000000 4.129815
v -2.666654 0.000000 4.129815
v -5.633306 0.000000 2.487266
v -5.797762 0.000000 2.487266
v -2.495174 0.000000 1.606107
v -2.666654 0.000000 1.606107
v -2.495174 0.000000 1.904085
v -2.495174 0.000000 1.733371
v -2.666654 0.000000 1.733371
v -2.666654 0.000000 1.904086
v -5.112338 0.000000 1.733371
v -5.112338 0.000000 1.904086
v 0.217851 0.000000 1.904085
v 0.217851 0.000000 1.733371
v -3.415093 0.000000 1.733371
v -3.598271 0.000000 1.733371
v -3.598271 0.000000 1.904086
v -3.415092 0.000000 1.904086
v -3.415093 0.000000 1.429394
v -3.598271 0.000000 1.429394
v -5.615091 0.000000 0.345483
v -5.470692 0.000000 0.345483
v -5.615091 0.000000 0.201083
v -5.470692 0.000000 0.201083
v 1.373812 0.000000 0.345483
v 1.373812 0.000000 0.201083
v 1.169262 0.000000 0.345483
v 1.349992 0.000000 0.345483
v 1.349992 0.000000 0.201083
v 1.169262 0.000000 0.201083
v 1.349992 0.000000 -2.251904
v 1.169262 0.000000 -2.251904
v 1.169262 0.000000 0.648470
v 1.349992 0.000000 0.648470
v 1.169262 0.000000 0.363503
v 1.169262 0.000000 0.512057
v 1.349992 0.000000 0.512057
v 1.349992 0.000000 0.363502
v 4.593739 0.000000 0.512057
v 4.593739 0.000000 0.363502
v 4.147473 0.000000 0.512057
v 4.313557 0.000000 0.512057
v 4.313557 0.000000 0.363502
v 4.147473 0.000000 0.363502
v 4.313557 0.000000 -2.226744
v 4.147473 0.000000 -2.226744
v 4.313557 0.000000 -0.527556
v 4.313557 0.000000 -0.700771
v 4.147473 0.000000 -0.700771
v 4.147473 0.000000 -0.527556
v 6.909743 0.000000 -0.527556
v 6.909743 0.000000 -0.700771
v 1.349992 0.000000 -1.915302
v 1.349992 0.000000 -2.083982
v 1.169262 0.000000 -2.083982
v 1.169262 0.000000 -1.915302
v 3.144153 0.000000 -1.915302
v 3.144153 0.000000 -2.083982
vt 0.000000 0.000000
vt 0.128461 0.000000
vt 0.128461 1.000000
vt 0.000000 1.000000
vt 0.591447 1.000000
vt 0.616804 1.000000
vt 0.616804 1.000000
vt 0.591447 1.000000
vt 0.152778 0.000000
vt 0.152778 1.000000
vt 0.591447 0.000000
vt 0.616803 0.000000
vt 1.000000 0.000000
vt 1.000000 1.000000
vt 0.152778 1.000000
vt 0.128461 1.000000
vt 0.591447 1.000000
vt 0.591447 1.000000
vt 0.591447 1.000000
vt 0.616804 1.000000
vt 0.616804 1.000000
vt 0.591447 1.000000
vt 0.616804 1.000000
vt 0.616804 1.000000
vt 0.591447 1.000000
vt 0.591447 1.000000
vt 0.591447 1.000000
vt 0.591447 1.000000
vt 0.591447 1.000000
vt 0.591447 1.000000
vt 0.000000 0.000000
vt 1.000000 0.000000
vt 1.000000 1.000000
vt 0.000000 1.000000
vt 1.000000 0.000000
vt 1.000000 1.000000
vt 1.000000 1.000000
vt 1.000000 1.000000
vt 1.000000 1.000000
vt 1.000000 0.000000
vt 1.000000 0.000000
vt 1.000000 1.000000
vt 1.000000 0.000000
vt 1.000000 0.000000
vt 1.000000 0.000000
vt 1.000000 0.000000
vt 1.000000 0.000000
vt 1.000000 0.000000
vt 1.000000 0.000000
vt 1.000000 0.000000
vt 1.000000 0.000000
vt 1.000000 0.000000
vt 1.000000 0.000000
vt 1.000000 0.000000
vt 1.000000 0.000000
vt 1.000000 0.000000
vt 1.000000 0.000000
vt 1.000000 0.000000
vt 1.000000 0.000000
vt 1.000000 0.000000
vt 1.000000 0.000000
vt 1.000000 0.000000
vt 1.000000 1.000000
vt 1.000000 1.000000
vt 1.000000 1.000000
vt 1.000000 1.000000
vt 1.000000 1.000000
vt 1.000000 1.000000
vn 0.0000 1.0000 0.0000
usemtl Path
s off
f 1/1/1 7/2/1 6/3/1 3/4/1
f 12/5/1 11/6/1 17/7/1 20/8/1
f 6/3/1 7/2/1 8/9/1 5/10/1
f 5/10/1 8/9/1 9/11/1 12/5/1
f 12/5/1 9/11/1 10/12/1 11/6/1
f 11/6/1 10/12/1 2/13/1 4/14/1
f 6/3/1 5/10/1 13/15/1 14/16/1
f 20/8/1 19/17/1 25/18/1 28/19/1
f 20/8/1 17/7/1 18/20/1 19/17/1
f 19/17/1 18/20/1 15/21/1 16/22/1
f 18/20/1 17/7/1 23/23/1 24/24/1
f 26/25/1 25/18/1 29/26/1 30/27/1
f 28/19/1 25/18/1 26/25/1 27/28/1
f 27/28/1 26/25/1 21/29/1 22/30/1
f 31/31/1 32/32/1 34/33/1 33/34/1
f 34/33/1 32/32/1 37/35/1 40/36/1
f 40/36/1 39/37/1 63/38/1 66/39/1
f 40/36/1 37/35/1 38/40/1 39/37/1
f 39/37/1 38/40/1 35/41/1 36/42/1
f 38/40/1 37/35/1 45/43/1 48/44/1
f 48/44/1 47/45/1 51/46/1 54/47/1
f 48/44/1 45/43/1 46/48/1 47/45/1
f 47/45/1 46/48/1 43/49/1 44/50/1
f 54/47/1 53/51/1 57/52/1 60/53/1
f 54/47/1 51/46/1 52/54/1 53/51/1
f 53/51/1 52/54/1 49/55/1 50/56/1
f 58/57/1 57/52/1 61/58/1 62/59/1
f 60/53/1 57/52/1 58/57/1 59/60/1
f 59/60/1 58/57/1 55/61/1 56/62/1
f 64/63/1 63/38/1 67/64/1 68/65/1
f 66/39/1 63/38/1 64/63/1 65/66/1
f 65/66/1 64/63/1 41/67/1 42/68/1
